<?xml version="1.0" encoding="utf-8"?>
<!-- Generator: Adobe Illustrator 15.0.2, SVG Export Plug-In . SVG Version: 6.00 Build 0)  -->
<!DOCTYPE svg PUBLIC "-//W3C//DTD SVG 1.1//EN" "http://www.w3.org/Graphics/SVG/1.1/DTD/svg11.dtd">
<svg version="1.1" id="Ebene_1" xmlns="http://www.w3.org/2000/svg" xmlns:xlink="http://www.w3.org/1999/xlink" x="0px" y="0px"
	 width="35px" height="35px" viewBox="0 0 35 35" enable-background="new 0 0 35 35" xml:space="preserve">
<g>
	<g>
		<g>
			<g>
				<g>
					<path fill="#5F5F5F" d="M14.5,19.5c0-0.55-0.45-1-1-1h-2c-0.55,0-1,0.45-1,1v4c0,0.55,0.45,1,1,1h2c0.55,0,1-0.45,1-1V19.5z"/>
				</g>
			</g>
		</g>
		<g>
			<g>
				<g>
					<path fill="#5F5F5F" d="M19.5,11.458c0-0.55-0.45-1-1-1h-2c-0.55,0-1,0.45-1,1v12c0,0.55,0.45,1,1,1h2c0.55,0,1-0.45,1-1
						V11.458z"/>
				</g>
			</g>
		</g>
		<g>
			<g>
				<g>
					<path fill="#5F5F5F" d="M24.5,15.458c0-0.55-0.45-1-1-1h-2c-0.55,0-1,0.45-1,1v8c0,0.55,0.45,1,1,1h2c0.55,0,1-0.45,1-1V15.458
						z"/>
				</g>
			</g>
		</g>
	</g>
</g>
</svg>
