<?xml version="1.0" encoding="utf-8"?>
<!-- Generator: Adobe Illustrator 15.0.2, SVG Export Plug-In . SVG Version: 6.00 Build 0)  -->
<!DOCTYPE svg PUBLIC "-//W3C//DTD SVG 1.1//EN" "http://www.w3.org/Graphics/SVG/1.1/DTD/svg11.dtd">
<svg version="1.1" id="Ebene_1" xmlns="http://www.w3.org/2000/svg" xmlns:xlink="http://www.w3.org/1999/xlink" x="0px" y="0px"
	 width="35px" height="35px" viewBox="0 0 35 35" enable-background="new 0 0 35 35" xml:space="preserve">
<path fill="#5F5F5F" d="M27.141,9.666c0-0.578-0.376-0.738-0.835-0.355c0,0-0.786,0.651-2.918,0.651
	c-3.361,0-3.436-2.729-7.337-2.729c-2.109,0-3.955,1.053-3.955,1.053c-0.525,0.299-0.955,1.017-0.955,1.595v9.29
	c0,0.578,0.438,0.819,0.972,0.534c0,0,2.008-1.067,3.953-1.067c3.683,0,4.199,2.597,7.483,2.597c2.12,0,2.773-0.569,2.773-0.569
	c0.451-0.393,0.818-1.187,0.818-1.764V9.666z"/>
<g>
	<path fill="#5F5F5F" d="M9,27c0,0.55-0.45,1-1,1l0,0c-0.55,0-1-0.45-1-1V9c0-0.55,0.45-1,1-1l0,0c0.55,0,1,0.45,1,1V27z"/>
</g>
</svg>
