<?xml version="1.0" encoding="utf-8"?>
<!-- Generator: Adobe Illustrator 15.0.2, SVG Export Plug-In . SVG Version: 6.00 Build 0)  -->
<!DOCTYPE svg PUBLIC "-//W3C//DTD SVG 1.1//EN" "http://www.w3.org/Graphics/SVG/1.1/DTD/svg11.dtd">
<svg version="1.1" id="Ebene_1" xmlns="http://www.w3.org/2000/svg" xmlns:xlink="http://www.w3.org/1999/xlink" x="0px" y="0px"
	 width="35px" height="35px" viewBox="0 0 35 35" enable-background="new 0 0 35 35" xml:space="preserve">
<g>
	<g>
		<path fill="#5F5F5F" d="M25,8H9c-1.65,0-3,1.35-3,3v11c0,1.65,1.35,3,3,3h3v3l3-3h10c1.65,0,3-1.35,3-3V11C28,9.35,26.65,8,25,8z
			 M26,22c0,0.542-0.458,1-1,1H9c-0.542,0-1-0.458-1-1V11c0-0.542,0.458-1,1-1h16c0.542,0,1,0.458,1,1V22z"/>
	</g>
	<g>
		<circle fill="#5F5F5F" cx="13.5" cy="18" r="1.5"/>
	</g>
	<g>
		<circle fill="#5F5F5F" cx="17.188" cy="18" r="1.5"/>
	</g>
	<g>
		<circle fill="#5F5F5F" cx="20.875" cy="18" r="1.5"/>
	</g>
</g>
</svg>
