<?xml version="1.0" encoding="utf-8"?>
<!-- Generator: Adobe Illustrator 15.0.2, SVG Export Plug-In . SVG Version: 6.00 Build 0)  -->
<!DOCTYPE svg PUBLIC "-//W3C//DTD SVG 1.1//EN" "http://www.w3.org/Graphics/SVG/1.1/DTD/svg11.dtd">
<svg version="1.1" id="Ebene_1" xmlns="http://www.w3.org/2000/svg" xmlns:xlink="http://www.w3.org/1999/xlink" x="0px" y="0px"
	 width="35px" height="35px" viewBox="0 0 35 35" enable-background="new 0 0 35 35" xml:space="preserve">
<path fill="#5F5F5F" d="M26.58,8.418c-0.557-0.558-1.461-0.558-2.019,0L22,10.98l-0.541-0.542c-1.613-1.613-4.448-1.613-6.061,0
	l-5.96,5.959c-0.807,0.807-1.251,1.884-1.251,3.03s0.444,2.224,1.251,3.03L9.979,23l-2.56,2.562c-0.561,0.558-0.561,1.462,0,2.019
	C7.697,27.86,8.063,28,8.429,28s0.73-0.14,1.01-0.42L12,25.021l0.541,0.541c0.807,0.807,1.884,1.251,3.03,1.251
	s2.224-0.444,3.03-1.251l5.96-5.96c0.807-0.807,1.251-1.884,1.251-3.03c0-1.147-0.444-2.224-1.251-3.03L24.021,13l2.56-2.561
	C27.141,9.881,27.141,8.977,26.58,8.418z M22.541,15.562c0.267,0.268,0.415,0.626,0.415,1.01c0,0.383-0.148,0.742-0.415,1.009
	l-5.96,5.96c-0.535,0.533-1.484,0.533-2.02,0L14.021,23l1.133-1.133c0.558-0.558,0.558-1.462,0-2.021
	c-0.559-0.558-1.463-0.558-2.021,0L12,20.979l-0.541-0.541c-0.267-0.268-0.415-0.626-0.415-1.01s0.148-0.741,0.415-1.01l5.96-5.96
	c0.268-0.266,0.626-0.414,1.01-0.414s0.742,0.147,1.01,0.414L19.979,13l-1.133,1.133c-0.558,0.559-0.558,1.462,0,2.021
	c0.279,0.279,0.645,0.418,1.011,0.418c0.365,0,0.729-0.14,1.01-0.418L22,15.021L22.541,15.562z"/>
</svg>
